<svg width="8000" height="2120" xmlns="http://www.w3.org/2000/svg" viewBox="0 0 8000 2120">
  <g>
    <path d="M 4548,54 L 4547,55 L 4537,55 L 4536,56 L 4531,56 L 4530,57 L 4528,57 L 4527,58 L 4525,58 L 4524,59 L 4522,59 L 4521,60 L 4520,60 L 4518,62 L 4517,62 L 4516,63 L 4515,63 L 4511,67 L 4510,67 L 4500,77 L 4500,78 L 4497,81 L 4497,82 L 4493,86 L 4493,87 L 4492,88 L 4492,89 L 4490,91 L 4490,92 L 4488,95 L 4488,97 L 4486,99 L 4486,100 L 4485,101 L 4485,103 L 4484,104 L 4484,105 L 4482,108 L 4482,110 L 4481,111 L 4481,113 L 4479,116 L 4479,118 L 4478,119 L 4478,120 L 4477,121 L 4477,122 L 4476,123 L 4476,124 L 4475,125 L 4475,126 L 4474,127 L 4474,128 L 4473,129 L 4473,130 L 4471,132 L 4471,134 L 4468,137 L 4468,138 L 4464,142 L 4463,142 L 4459,146 L 4458,146 L 4456,148 L 4454,148 L 4452,150 L 4450,150 L 4449,151 L 4447,151 L 4446,152 L 4443,152 L 4442,153 L 4439,153 L 4438,154 L 4434,154 L 4433,155 L 4428,155 L 4427,156 L 4390,156 L 4389,157 L 4349,157 L 4348,156 L 3950,156 L 3949,157 L 3909,157 L 3908,156 L 3828,156 L 3827,157 L 3817,157 L 3816,158 L 3811,158 L 3810,159 L 3806,159 L 3805,160 L 3803,160 L 3802,161 L 3799,161 L 3796,163 L 3793,163 L 3791,165 L 3790,165 L 3788,167 L 3787,167 L 3784,169 L 3782,169 L 3780,171 L 3779,171 L 3776,174 L 3775,174 L 3771,178 L 3770,178 L 3757,191 L 3756,191 L 3751,196 L 3751,197 L 3748,200 L 3747,200 L 3742,205 L 3741,205 L 3737,209 L 3736,209 L 3735,210 L 3734,210 L 3732,212 L 3731,212 L 3730,213 L 3729,213 L 3727,215 L 3726,215 L 3725,216 L 3724,216 L 3721,218 L 3719,218 L 3718,219 L 3716,219 L 3715,220 L 3711,220 L 3710,221 L 3707,221 L 3706,222 L 3677,222 L 3676,221 L 3671,221 L 3670,220 L 3664,220 L 3663,219 L 3653,219 L 3652,218 L 3642,218 L 3641,217 L 3629,217 L 3628,218 L 3611,218 L 3610,219 L 3532,219 L 3531,218 L 3530,219 L 3527,219 L 3526,218 L 3520,218 L 3519,217 L 3501,217 L 3500,216 L 3488,216 L 3487,217 L 3477,217 L 3476,218 L 3471,218 L 3470,219 L 3464,219 L 3463,220 L 3459,220 L 3458,221 L 3454,221 L 3453,222 L 3451,222 L 3450,223 L 3449,223 L 3446,225 L 3444,225 L 3443,226 L 3442,226 L 3441,227 L 3440,227 L 3439,228 L 3438,228 L 3437,229 L 3436,229 L 3434,231 L 3433,231 L 3432,232 L 3431,232 L 3431,233 L 3430,234 L 3429,234 L 3428,235 L 3428,236 L 3426,238 L 3425,238 L 3420,243 L 3420,244 L 3416,248 L 3416,249 L 3411,254 L 3411,255 L 3409,257 L 3409,258 L 3407,260 L 3407,261 L 3405,263 L 3405,264 L 3403,266 L 3403,267 L 3401,269 L 3401,270 L 3398,273 L 3398,274 L 3397,275 L 3397,276 L 3393,280 L 3392,280 L 3391,281 L 3391,282 L 3386,287 L 3385,287 L 3383,289 L 3382,289 L 3380,291 L 3379,291 L 3377,293 L 3376,293 L 3375,294 L 3374,294 L 3373,295 L 3372,295 L 3371,296 L 3370,296 L 3367,298 L 3364,298 L 3363,299 L 3360,299 L 3359,300 L 3354,300 L 3353,301 L 3330,301 L 3329,300 L 3324,300 L 3323,299 L 3320,299 L 3317,297 L 3315,297 L 3314,296 L 3313,296 L 3311,294 L 3310,294 L 3308,292 L 3307,292 L 3306,291 L 3305,291 L 3303,289 L 3302,289 L 3297,284 L 3297,283 L 3291,277 L 3291,276 L 3290,275 L 3290,274 L 3289,273 L 3289,272 L 3287,269 L 3287,267 L 3285,265 L 3285,262 L 3283,259 L 3283,256 L 3282,255 L 3282,253 L 3281,252 L 3281,248 L 3280,247 L 3280,241 L 3279,240 L 3279,223 L 3280,222 L 3280,216 L 3281,215 L 3281,210 L 3282,209 L 3282,204 L 3283,203 L 3283,197 L 3284,196 L 3284,189 L 3285,188 L 3285,172 L 3284,171 L 3284,168 L 3283,167 L 3283,163 L 3282,162 L 3282,160 L 3281,159 L 3281,157 L 3280,156 L 3280,155 L 3279,154 L 3279,153 L 3278,152 L 3278,151 L 3277,150 L 3277,149 L 3271,143 L 3271,142 L 3270,142 L 3267,139 L 3266,139 L 3264,137 L 3263,137 L 3262,136 L 3261,136 L 3259,134 L 3258,134 L 3257,133 L 3255,133 L 3252,131 L 3250,131 L 3249,130 L 3247,130 L 3246,129 L 3243,129 L 3242,128 L 3240,128 L 3239,127 L 3234,127 L 3233,126 L 3229,126 L 3228,125 L 3221,125 L 3220,124 L 3142,124 L 3141,125 L 3130,125 L 3129,124 L 2947,124 L 2946,125 L 2913,125 L 2912,124 L 2842,124 L 2841,125 L 2839,125 L 2838,126 L 2836,126 L 2835,127 L 2833,127 L 2832,128 L 2831,128 L 2830,129 L 2829,129 L 2828,130 L 2827,130 L 2826,131 L 2825,131 L 2823,133 L 2822,133 L 2821,134 L 2821,135 L 2813,143 L 2813,144 L 2812,145 L 2812,146 L 2810,149 L 2810,151 L 2809,152 L 2809,154 L 2808,155 L 2808,158 L 2807,159 L 2807,163 L 2806,164 L 2806,170 L 2805,171 L 2805,181 L 2804,182 L 2804,208 L 2803,209 L 2803,215 L 2802,216 L 2802,219 L 2801,220 L 2801,223 L 2800,224 L 2800,226 L 2799,227 L 2799,229 L 2798,230 L 2798,231 L 2796,233 L 2796,234 L 2792,238 L 2792,239 L 2791,240 L 2790,240 L 2790,241 L 2789,242 L 2788,242 L 2784,246 L 2783,246 L 2781,248 L 2780,248 L 2778,250 L 2776,250 L 2774,252 L 2772,252 L 2771,253 L 2769,253 L 2766,255 L 2764,255 L 2763,256 L 2761,256 L 2760,257 L 2757,257 L 2756,258 L 2752,258 L 2751,259 L 2743,259 L 2742,260 L 2710,260 L 2709,261 L 2670,261 L 2669,260 L 2618,260 L 2617,261 L 2599,261 L 2598,260 L 2532,260 L 2531,261 L 2514,261 L 2513,262 L 2508,262 L 2507,263 L 2499,263 L 2498,264 L 2492,264 L 2491,265 L 2489,265 L 2488,266 L 2484,266 L 2483,267 L 2479,267 L 2478,268 L 2474,268 L 2473,269 L 2468,269 L 2467,270 L 2463,270 L 2462,271 L 2459,271 L 2458,272 L 2454,272 L 2453,273 L 2451,273 L 2450,274 L 2446,274 L 2445,275 L 2441,275 L 2440,276 L 2436,276 L 2435,277 L 2430,277 L 2429,278 L 2424,278 L 2423,279 L 2419,279 L 2418,280 L 2408,280 L 2407,281 L 2391,281 L 2390,282 L 2369,282 L 2368,281 L 2341,281 L 2340,280 L 2310,280 L 2309,281 L 2200,281 L 2199,282 L 2198,281 L 2191,281 L 2190,282 L 2169,282 L 2168,281 L 2153,281 L 2152,280 L 2146,280 L 2145,279 L 2142,279 L 2141,278 L 2140,279 L 2139,279 L 2138,278 L 2133,278 L 2132,277 L 2109,277 L 2108,278 L 2102,278 L 2101,279 L 2099,279 L 2098,280 L 2094,280 L 2093,281 L 2091,281 L 2090,282 L 2089,282 L 2088,283 L 2087,283 L 2086,284 L 2085,284 L 2083,286 L 2082,286 L 2078,290 L 2077,290 L 2076,291 L 2075,291 L 2070,296 L 2070,297 L 2066,301 L 2066,302 L 2064,304 L 2064,305 L 2062,307 L 2062,308 L 2061,309 L 2061,311 L 2060,312 L 2060,313 L 2058,316 L 2058,318 L 2057,319 L 2057,321 L 2056,322 L 2056,325 L 2054,328 L 2054,331 L 2053,332 L 2053,337 L 2052,338 L 2052,346 L 2051,347 L 2051,367 L 2050,368 L 2050,377 L 2051,378 L 2051,399 L 2052,400 L 2052,417 L 2053,418 L 2053,438 L 2052,439 L 2052,496 L 2051,497 L 2051,505 L 2050,506 L 2050,511 L 2049,512 L 2049,516 L 2048,517 L 2048,519 L 2047,520 L 2047,522 L 2046,523 L 2046,524 L 2045,525 L 2045,526 L 2044,527 L 2044,528 L 2043,529 L 2043,530 L 2041,532 L 2041,533 L 2040,534 L 2040,535 L 2032,543 L 2031,543 L 2027,547 L 2026,547 L 2024,549 L 2023,549 L 2022,550 L 2021,550 L 2020,551 L 2019,551 L 2018,552 L 2017,552 L 2016,553 L 2015,553 L 2012,555 L 2010,555 L 2007,557 L 2005,557 L 2002,559 L 2000,559 L 1999,560 L 1997,560 L 1996,561 L 1994,561 L 1993,562 L 1990,562 L 1989,563 L 1987,563 L 1984,565 L 1981,565 L 1980,566 L 1978,566 L 1977,567 L 1974,567 L 1973,568 L 1969,568 L 1968,569 L 1966,569 L 1965,570 L 1961,570 L 1958,572 L 1955,572 L 1952,574 L 1950,574 L 1947,576 L 1945,576 L 1944,577 L 1943,577 L 1942,578 L 1941,578 L 1938,580 L 1936,580 L 1934,582 L 1932,582 L 1930,584 L 1929,584 L 1927,586 L 1926,586 L 1924,588 L 1923,588 L 1922,589 L 1921,589 L 1919,591 L 1918,591 L 1916,593 L 1915,593 L 1914,594 L 1913,594 L 1910,597 L 1909,597 L 1908,598 L 1907,598 L 1904,600 L 1902,600 L 1900,602 L 1899,602 L 1898,603 L 1897,603 L 1896,604 L 1895,604 L 1894,605 L 1893,605 L 1892,606 L 1891,606 L 1888,608 L 1886,608 L 1883,610 L 1881,610 L 1880,611 L 1878,611 L 1877,612 L 1874,612 L 1873,613 L 1871,613 L 1868,615 L 1864,615 L 1863,616 L 1861,616 L 1860,617 L 1857,617 L 1856,618 L 1850,618 L 1849,619 L 1842,619 L 1841,620 L 1834,620 L 1833,621 L 1826,621 L 1825,622 L 1821,622 L 1820,623 L 1814,623 L 1813,624 L 1808,624 L 1807,625 L 1801,625 L 1800,626 L 1796,626 L 1795,627 L 1790,627 L 1789,628 L 1781,628 L 1780,629 L 1774,629 L 1773,630 L 1767,630 L 1766,631 L 1760,631 L 1759,632 L 1756,632 L 1755,633 L 1751,633 L 1748,635 L 1744,635 L 1743,636 L 1741,636 L 1740,637 L 1738,637 L 1737,638 L 1734,638 L 1733,639 L 1730,639 L 1727,641 L 1723,641 L 1722,642 L 1721,642 L 1720,643 L 1718,643 L 1715,645 L 1713,645 L 1712,646 L 1710,646 L 1708,648 L 1706,648 L 1705,649 L 1703,649 L 1702,650 L 1700,650 L 1698,652 L 1696,652 L 1695,653 L 1694,653 L 1693,654 L 1692,654 L 1690,656 L 1689,656 L 1688,657 L 1686,657 L 1685,658 L 1683,658 L 1681,660 L 1679,660 L 1678,661 L 1676,661 L 1675,662 L 1672,662 L 1669,664 L 1666,664 L 1665,665 L 1663,665 L 1662,666 L 1658,666 L 1657,667 L 1651,667 L 1650,668 L 1644,668 L 1643,669 L 1638,669 L 1637,670 L 1627,670 L 1626,671 L 1618,671 L 1617,672 L 1612,672 L 1611,673 L 1606,673 L 1605,674 L 1600,674 L 1599,675 L 1592,675 L 1591,676 L 1588,676 L 1587,677 L 1583,677 L 1582,678 L 1579,678 L 1578,679 L 1574,679 L 1573,680 L 1569,680 L 1568,681 L 1563,681 L 1562,682 L 1559,682 L 1558,683 L 1553,683 L 1552,684 L 1547,684 L 1546,685 L 1541,685 L 1540,686 L 1207,686 L 1206,687 L 1193,687 L 1192,688 L 1180,688 L 1179,689 L 1167,689 L 1166,690 L 1156,690 L 1155,691 L 1148,691 L 1147,692 L 1138,692 L 1137,693 L 1130,693 L 1129,694 L 1124,694 L 1123,695 L 1113,695 L 1112,696 L 1103,696 L 1102,697 L 1091,697 L 1090,698 L 1039,698 L 1038,697 L 880,697 L 879,698 L 849,698 L 848,697 L 832,697 L 831,696 L 818,696 L 817,695 L 799,695 L 798,696 L 787,696 L 786,697 L 779,697 L 778,698 L 773,698 L 772,699 L 769,699 L 768,700 L 764,700 L 763,701 L 760,701 L 759,702 L 757,702 L 754,704 L 752,704 L 750,706 L 749,706 L 748,707 L 746,707 L 743,709 L 741,709 L 740,710 L 738,710 L 735,712 L 733,712 L 732,713 L 730,713 L 729,714 L 728,714 L 725,716 L 723,716 L 722,717 L 718,717 L 717,718 L 714,718 L 713,719 L 707,719 L 706,720 L 678,720 L 677,719 L 667,719 L 666,718 L 658,718 L 657,717 L 510,717 L 509,718 L 472,718 L 471,717 L 452,717 L 451,716 L 441,716 L 440,715 L 421,715 L 420,716 L 413,716 L 412,717 L 406,717 L 405,718 L 401,718 L 400,719 L 396,719 L 395,720 L 391,720 L 390,721 L 388,721 L 387,722 L 384,722 L 381,724 L 378,724 L 375,726 L 372,726 L 371,727 L 369,727 L 366,729 L 363,729 L 362,730 L 359,730 L 358,731 L 354,731 L 353,732 L 348,732 L 347,733 L 342,733 L 341,734 L 338,734 L 337,735 L 334,735 L 333,736 L 323,736 L 322,737 L 311,737 L 310,738 L 0,738 L 0,1908 L 1,1908 L 2,1909 L 6,1909 L 9,1911 L 10,1910 L 12,1912 L 13,1912 L 14,1913 L 14,1914 L 16,1914 L 18,1916 L 19,1916 L 21,1918 L 22,1918 L 23,1919 L 24,1919 L 25,1920 L 26,1920 L 35,1929 L 36,1929 L 37,1930 L 37,1931 L 40,1934 L 40,1935 L 42,1937 L 42,1938 L 47,1943 L 47,1944 L 48,1945 L 48,1946 L 49,1947 L 49,1948 L 51,1951 L 51,1953 L 53,1956 L 53,1958 L 54,1959 L 54,1960 L 56,1962 L 56,1964 L 57,1965 L 57,1967 L 58,1968 L 58,1969 L 60,1972 L 60,1974 L 61,1975 L 61,1977 L 63,1980 L 63,1982 L 65,1985 L 65,1987 L 67,1989 L 67,1990 L 69,1993 L 69,1995 L 70,1996 L 70,1997 L 71,1998 L 71,1999 L 72,2000 L 72,2001 L 73,2002 L 73,2003 L 74,2004 L 74,2005 L 75,2006 L 75,2007 L 77,2009 L 77,2010 L 79,2012 L 79,2013 L 80,2014 L 80,2015 L 82,2017 L 82,2018 L 88,2024 L 88,2025 L 96,2033 L 97,2033 L 98,2034 L 98,2035 L 99,2036 L 100,2036 L 103,2039 L 104,2039 L 105,2040 L 106,2040 L 107,2041 L 108,2041 L 111,2044 L 112,2044 L 113,2045 L 114,2045 L 115,2046 L 116,2046 L 117,2047 L 118,2047 L 121,2049 L 124,2049 L 125,2050 L 127,2050 L 128,2051 L 130,2051 L 131,2052 L 133,2052 L 134,2053 L 137,2053 L 138,2054 L 140,2054 L 141,2055 L 145,2055 L 146,2056 L 149,2056 L 150,2057 L 155,2057 L 156,2058 L 161,2058 L 162,2059 L 163,2058 L 164,2059 L 171,2059 L 172,2060 L 179,2060 L 180,2061 L 187,2061 L 188,2062 L 201,2062 L 202,2063 L 222,2063 L 223,2062 L 233,2062 L 234,2061 L 241,2061 L 242,2060 L 248,2060 L 249,2059 L 255,2059 L 256,2058 L 263,2058 L 264,2057 L 273,2057 L 274,2056 L 280,2056 L 281,2055 L 286,2055 L 287,2054 L 290,2054 L 291,2053 L 295,2053 L 296,2052 L 298,2052 L 299,2051 L 302,2051 L 303,2050 L 306,2050 L 307,2049 L 309,2049 L 310,2048 L 312,2048 L 313,2047 L 316,2047 L 317,2046 L 318,2046 L 321,2044 L 323,2044 L 324,2043 L 325,2043 L 328,2041 L 330,2041 L 333,2039 L 335,2039 L 336,2038 L 338,2038 L 339,2037 L 340,2037 L 341,2036 L 342,2036 L 343,2035 L 344,2035 L 345,2034 L 346,2034 L 347,2033 L 348,2033 L 351,2031 L 353,2031 L 356,2029 L 358,2029 L 361,2027 L 363,2027 L 366,2025 L 368,2025 L 370,2023 L 372,2023 L 373,2022 L 375,2022 L 376,2021 L 377,2021 L 380,2019 L 383,2019 L 386,2017 L 388,2017 L 389,2016 L 391,2016 L 392,2015 L 393,2015 L 394,2014 L 396,2014 L 399,2012 L 401,2012 L 402,2011 L 404,2011 L 405,2010 L 407,2010 L 408,2009 L 410,2009 L 411,2008 L 413,2008 L 414,2007 L 416,2007 L 417,2006 L 418,2006 L 421,2004 L 423,2004 L 426,2002 L 428,2002 L 429,2001 L 431,2001 L 432,2000 L 434,2000 L 435,1999 L 438,1999 L 439,1998 L 441,1998 L 442,1997 L 444,1997 L 445,1996 L 448,1996 L 451,1994 L 454,1994 L 455,1993 L 457,1993 L 458,1992 L 460,1992 L 461,1991 L 466,1991 L 467,1990 L 471,1990 L 472,1989 L 478,1989 L 479,1988 L 481,1988 L 482,1987 L 485,1987 L 486,1986 L 488,1986 L 489,1985 L 491,1985 L 492,1984 L 494,1984 L 495,1983 L 497,1983 L 498,1982 L 499,1982 L 500,1981 L 501,1981 L 502,1980 L 503,1980 L 504,1979 L 505,1979 L 506,1978 L 507,1978 L 508,1977 L 509,1977 L 511,1975 L 512,1975 L 513,1974 L 514,1974 L 515,1973 L 516,1973 L 518,1971 L 519,1971 L 521,1969 L 522,1969 L 523,1968 L 524,1968 L 525,1967 L 526,1967 L 528,1965 L 529,1965 L 533,1961 L 534,1961 L 535,1960 L 536,1960 L 539,1957 L 540,1957 L 542,1955 L 543,1955 L 545,1953 L 546,1953 L 547,1952 L 548,1952 L 550,1950 L 552,1950 L 553,1949 L 554,1949 L 555,1948 L 556,1948 L 557,1947 L 558,1947 L 559,1946 L 560,1946 L 563,1944 L 565,1944 L 566,1943 L 567,1943 L 568,1942 L 570,1942 L 573,1940 L 576,1940 L 577,1939 L 580,1939 L 581,1938 L 587,1938 L 588,1937 L 592,1937 L 593,1936 L 597,1936 L 598,1935 L 601,1935 L 602,1934 L 605,1934 L 606,1933 L 608,1933 L 609,1932 L 612,1932 L 613,1931 L 615,1931 L 616,1930 L 619,1930 L 620,1929 L 622,1929 L 623,1928 L 625,1928 L 626,1927 L 628,1927 L 629,1926 L 631,1926 L 632,1925 L 634,1925 L 635,1924 L 637,1924 L 638,1923 L 639,1923 L 642,1921 L 644,1921 L 645,1920 L 647,1920 L 648,1919 L 651,1919 L 654,1917 L 657,1917 L 660,1915 L 662,1915 L 664,1913 L 666,1913 L 667,1912 L 669,1912 L 672,1910 L 675,1910 L 676,1909 L 677,1909 L 680,1907 L 682,1907 L 683,1906 L 685,1906 L 687,1904 L 688,1904 L 690,1902 L 692,1902 L 693,1901 L 694,1901 L 695,1900 L 696,1900 L 697,1899 L 698,1899 L 699,1898 L 700,1898 L 701,1897 L 702,1897 L 703,1896 L 704,1896 L 705,1895 L 706,1895 L 707,1894 L 708,1894 L 709,1893 L 710,1893 L 712,1891 L 714,1891 L 715,1890 L 716,1890 L 719,1888 L 721,1888 L 722,1887 L 723,1887 L 724,1886 L 725,1886 L 726,1885 L 727,1885 L 728,1884 L 729,1884 L 731,1882 L 733,1882 L 734,1881 L 736,1881 L 739,1879 L 741,1879 L 742,1878 L 744,1878 L 747,1876 L 749,1876 L 752,1874 L 754,1874 L 755,1873 L 757,1873 L 758,1872 L 760,1872 L 761,1871 L 764,1871 L 765,1870 L 769,1870 L 770,1869 L 775,1869 L 776,1868 L 780,1868 L 781,1867 L 788,1867 L 789,1866 L 793,1866 L 794,1865 L 798,1865 L 799,1864 L 802,1864 L 803,1863 L 806,1863 L 807,1862 L 809,1862 L 810,1861 L 812,1861 L 813,1860 L 815,1860 L 816,1859 L 818,1859 L 819,1858 L 820,1858 L 823,1856 L 825,1856 L 826,1855 L 827,1855 L 829,1853 L 830,1853 L 832,1851 L 833,1851 L 834,1850 L 835,1850 L 836,1849 L 837,1849 L 839,1847 L 840,1847 L 843,1844 L 844,1844 L 846,1842 L 847,1842 L 851,1838 L 852,1838 L 858,1832 L 859,1832 L 861,1830 L 862,1830 L 864,1828 L 865,1828 L 866,1827 L 867,1827 L 869,1825 L 870,1825 L 873,1822 L 874,1822 L 875,1821 L 877,1821 L 879,1819 L 881,1819 L 882,1818 L 884,1818 L 887,1816 L 890,1816 L 893,1814 L 897,1814 L 900,1812 L 905,1812 L 906,1811 L 910,1811 L 911,1810 L 916,1810 L 917,1809 L 922,1809 L 923,1808 L 928,1808 L 929,1807 L 933,1807 L 934,1806 L 940,1806 L 941,1805 L 946,1805 L 947,1804 L 950,1804 L 951,1803 L 955,1803 L 956,1802 L 959,1802 L 960,1801 L 963,1801 L 964,1800 L 968,1800 L 969,1799 L 971,1799 L 972,1798 L 975,1798 L 976,1797 L 978,1797 L 981,1795 L 983,1795 L 985,1793 L 987,1793 L 988,1792 L 989,1792 L 990,1791 L 991,1791 L 992,1790 L 993,1790 L 994,1789 L 995,1789 L 996,1788 L 997,1788 L 998,1787 L 999,1787 L 1004,1782 L 1005,1782 L 1007,1780 L 1008,1780 L 1011,1777 L 1012,1777 L 1016,1773 L 1017,1773 L 1019,1771 L 1020,1771 L 1022,1769 L 1023,1769 L 1024,1768 L 1025,1768 L 1026,1767 L 1027,1767 L 1029,1765 L 1030,1765 L 1032,1763 L 1033,1763 L 1034,1762 L 1035,1762 L 1036,1761 L 1037,1761 L 1038,1760 L 1039,1760 L 1042,1758 L 1044,1758 L 1045,1757 L 1047,1757 L 1050,1755 L 1052,1755 L 1053,1754 L 1055,1754 L 1056,1753 L 1058,1753 L 1059,1752 L 1061,1752 L 1062,1751 L 1065,1751 L 1066,1750 L 1069,1750 L 1070,1749 L 1073,1749 L 1074,1748 L 1079,1748 L 1080,1747 L 1085,1747 L 1086,1746 L 1089,1746 L 1090,1745 L 1093,1745 L 1094,1744 L 1098,1744 L 1099,1743 L 1102,1743 L 1103,1742 L 1107,1742 L 1108,1741 L 1111,1741 L 1112,1740 L 1116,1740 L 1117,1739 L 1119,1739 L 1120,1738 L 1122,1738 L 1123,1737 L 1126,1737 L 1127,1736 L 1129,1736 L 1132,1734 L 1135,1734 L 1136,1733 L 1137,1733 L 1140,1731 L 1142,1731 L 1145,1729 L 1147,1729 L 1148,1728 L 1150,1728 L 1151,1727 L 1152,1727 L 1155,1725 L 1157,1725 L 1159,1723 L 1160,1723 L 1161,1722 L 1162,1722 L 1165,1720 L 1167,1720 L 1168,1719 L 1169,1719 L 1171,1717 L 1173,1717 L 1174,1716 L 1175,1716 L 1176,1715 L 1177,1715 L 1179,1713 L 1180,1713 L 1181,1712 L 1182,1712 L 1183,1711 L 1184,1711 L 1187,1709 L 1189,1709 L 1192,1707 L 1194,1707 L 1196,1705 L 1198,1705 L 1200,1703 L 1202,1703 L 1203,1702 L 1205,1702 L 1208,1700 L 1210,1700 L 1211,1699 L 1213,1699 L 1214,1698 L 1217,1698 L 1218,1697 L 1220,1697 L 1221,1696 L 1223,1696 L 1224,1695 L 1228,1695 L 1231,1693 L 1233,1693 L 1234,1692 L 1238,1692 L 1239,1691 L 1241,1691 L 1242,1690 L 1246,1690 L 1247,1689 L 1250,1689 L 1251,1688 L 1256,1688 L 1257,1687 L 1263,1687 L 1264,1686 L 1271,1686 L 1272,1685 L 1280,1685 L 1281,1684 L 1290,1684 L 1291,1683 L 1306,1683 L 1307,1682 L 1319,1682 L 1320,1681 L 1336,1681 L 1337,1680 L 1350,1680 L 1351,1679 L 1365,1679 L 1366,1678 L 1372,1678 L 1373,1677 L 1378,1677 L 1379,1676 L 1385,1676 L 1386,1675 L 1389,1675 L 1390,1674 L 1395,1674 L 1396,1673 L 1399,1673 L 1400,1672 L 1403,1672 L 1404,1671 L 1409,1671 L 1410,1670 L 1415,1670 L 1416,1669 L 1419,1669 L 1420,1668 L 1422,1668 L 1423,1667 L 1426,1667 L 1427,1666 L 1429,1666 L 1430,1665 L 1431,1665 L 1434,1663 L 1437,1663 L 1438,1662 L 1439,1662 L 1442,1660 L 1445,1660 L 1446,1659 L 1448,1659 L 1449,1658 L 1451,1658 L 1454,1656 L 1457,1656 L 1459,1654 L 1460,1654 L 1463,1652 L 1466,1652 L 1467,1651 L 1469,1651 L 1470,1650 L 1472,1650 L 1473,1649 L 1476,1649 L 1477,1648 L 1479,1648 L 1480,1647 L 1482,1647 L 1483,1646 L 1485,1646 L 1486,1645 L 1488,1645 L 1491,1643 L 1493,1643 L 1494,1642 L 1496,1642 L 1497,1641 L 1499,1641 L 1500,1640 L 1503,1640 L 1504,1639 L 1508,1639 L 1509,1638 L 1513,1638 L 1514,1637 L 1519,1637 L 1520,1636 L 1525,1636 L 1526,1635 L 1532,1635 L 1533,1634 L 1539,1634 L 1540,1633 L 1549,1633 L 1550,1632 L 1555,1632 L 1556,1631 L 1566,1631 L 1567,1630 L 1575,1630 L 1576,1629 L 1583,1629 L 1584,1628 L 1593,1628 L 1594,1627 L 1600,1627 L 1601,1626 L 1607,1626 L 1608,1625 L 1613,1625 L 1614,1624 L 1619,1624 L 1620,1623 L 1623,1623 L 1624,1622 L 1628,1622 L 1629,1621 L 1632,1621 L 1633,1620 L 1638,1620 L 1639,1619 L 1642,1619 L 1643,1618 L 1647,1618 L 1648,1617 L 1652,1617 L 1653,1616 L 1656,1616 L 1657,1615 L 1659,1615 L 1660,1614 L 1662,1614 L 1663,1613 L 1665,1613 L 1666,1612 L 1669,1612 L 1672,1610 L 1674,1610 L 1675,1609 L 1676,1609 L 1677,1608 L 1678,1608 L 1680,1606 L 1681,1606 L 1682,1605 L 1683,1605 L 1686,1602 L 1687,1602 L 1689,1600 L 1690,1600 L 1693,1597 L 1694,1597 L 1703,1588 L 1704,1588 L 1706,1586 L 1707,1586 L 1708,1585 L 1708,1584 L 1709,1583 L 1710,1583 L 1713,1580 L 1714,1580 L 1715,1579 L 1716,1579 L 1718,1577 L 1719,1577 L 1720,1576 L 1721,1576 L 1723,1574 L 1724,1574 L 1725,1573 L 1726,1573 L 1727,1572 L 1728,1572 L 1729,1571 L 1730,1571 L 1733,1569 L 1735,1569 L 1736,1568 L 1738,1568 L 1739,1567 L 1741,1567 L 1742,1566 L 1746,1566 L 1749,1564 L 1752,1564 L 1753,1563 L 1757,1563 L 1758,1562 L 1761,1562 L 1762,1561 L 1766,1561 L 1767,1560 L 1771,1560 L 1772,1559 L 1777,1559 L 1778,1558 L 1781,1558 L 1782,1557 L 1787,1557 L 1788,1556 L 1790,1556 L 1791,1555 L 1794,1555 L 1795,1554 L 1797,1554 L 1800,1552 L 1802,1552 L 1803,1551 L 1805,1551 L 1806,1550 L 1808,1550 L 1809,1549 L 1811,1549 L 1814,1547 L 1816,1547 L 1818,1545 L 1819,1545 L 1822,1542 L 1823,1542 L 1824,1541 L 1825,1541 L 1826,1540 L 1827,1540 L 1828,1539 L 1829,1539 L 1829,1538 L 1830,1537 L 1831,1537 L 1833,1535 L 1834,1535 L 1840,1529 L 1841,1529 L 1841,1528 L 1842,1527 L 1843,1527 L 1859,1511 L 1859,1510 L 1868,1501 L 1868,1500 L 1879,1489 L 1879,1488 L 1882,1485 L 1882,1484 L 1888,1478 L 1888,1477 L 1891,1474 L 1891,1473 L 1900,1464 L 1900,1463 L 1904,1459 L 1905,1459 L 1911,1453 L 1911,1452 L 1912,1451 L 1913,1451 L 1919,1445 L 1920,1445 L 1920,1444 L 1923,1441 L 1924,1441 L 1934,1431 L 1935,1431 L 1943,1423 L 1943,1422 L 1944,1421 L 1945,1421 L 1948,1418 L 1948,1417 L 1951,1414 L 1951,1413 L 1956,1408 L 1957,1408 L 1957,1407 L 1962,1402 L 1962,1401 L 1963,1400 L 1964,1400 L 1974,1390 L 1975,1390 L 1977,1388 L 1978,1388 L 1983,1383 L 1984,1383 L 1985,1382 L 1986,1382 L 1988,1380 L 1989,1380 L 1990,1379 L 1991,1379 L 1992,1378 L 1993,1378 L 1994,1377 L 1995,1377 L 1996,1376 L 1997,1376 L 1999,1374 L 2000,1374 L 2002,1372 L 2004,1372 L 2005,1371 L 2006,1371 L 2009,1369 L 2011,1369 L 2014,1367 L 2016,1367 L 2017,1366 L 2018,1366 L 2020,1364 L 2022,1364 L 2023,1363 L 2024,1363 L 2025,1362 L 2026,1362 L 2029,1360 L 2031,1360 L 2034,1358 L 2036,1358 L 2037,1357 L 2038,1357 L 2040,1355 L 2041,1355 L 2043,1353 L 2044,1353 L 2045,1352 L 2046,1352 L 2048,1350 L 2049,1350 L 2051,1348 L 2052,1348 L 2055,1345 L 2056,1345 L 2064,1337 L 2065,1337 L 2071,1331 L 2072,1331 L 2074,1329 L 2075,1329 L 2076,1328 L 2077,1328 L 2079,1326 L 2080,1326 L 2083,1323 L 2084,1323 L 2085,1322 L 2087,1322 L 2088,1321 L 2089,1321 L 2092,1319 L 2094,1319 L 2095,1318 L 2097,1318 L 2099,1316 L 2101,1316 L 2102,1315 L 2103,1315 L 2104,1314 L 2106,1314 L 2109,1312 L 2111,1312 L 2112,1311 L 2114,1311 L 2115,1310 L 2117,1310 L 2118,1309 L 2120,1309 L 2121,1308 L 2123,1308 L 2124,1307 L 2126,1307 L 2127,1306 L 2129,1306 L 2130,1305 L 2132,1305 L 2133,1304 L 2135,1304 L 2136,1303 L 2138,1303 L 2139,1302 L 2141,1302 L 2142,1301 L 2144,1301 L 2145,1300 L 2147,1300 L 2148,1299 L 2151,1299 L 2152,1298 L 2155,1298 L 2156,1297 L 2159,1297 L 2160,1296 L 2162,1296 L 2163,1295 L 2167,1295 L 2168,1294 L 2170,1294 L 2171,1293 L 2175,1293 L 2176,1292 L 2181,1292 L 2182,1291 L 2188,1291 L 2189,1290 L 2190,1291 L 2191,1290 L 2202,1290 L 2203,1291 L 2210,1291 L 2211,1292 L 2215,1292 L 2216,1293 L 2218,1293 L 2221,1295 L 2223,1295 L 2224,1296 L 2227,1296 L 2228,1297 L 2230,1297 L 2231,1298 L 2233,1298 L 2234,1299 L 2236,1299 L 2237,1300 L 2238,1300 L 2239,1301 L 2240,1301 L 2241,1302 L 2242,1302 L 2245,1304 L 2247,1304 L 2248,1305 L 2249,1305 L 2251,1307 L 2252,1307 L 2253,1308 L 2255,1308 L 2256,1309 L 2257,1309 L 2258,1310 L 2259,1310 L 2260,1311 L 2261,1311 L 2263,1313 L 2264,1313 L 2265,1314 L 2267,1314 L 2269,1316 L 2270,1316 L 2272,1318 L 2273,1318 L 2274,1319 L 2275,1319 L 2276,1320 L 2277,1320 L 2278,1321 L 2279,1321 L 2281,1323 L 2282,1323 L 2285,1326 L 2286,1326 L 2289,1329 L 2290,1329 L 2294,1333 L 2295,1333 L 2297,1335 L 2297,1336 L 2298,1336 L 2300,1338 L 2300,1339 L 2303,1342 L 2304,1342 L 2307,1345 L 2307,1346 L 2308,1346 L 2314,1352 L 2315,1352 L 2320,1357 L 2321,1357 L 2322,1358 L 2323,1358 L 2324,1359 L 2325,1359 L 2326,1360 L 2327,1360 L 2330,1362 L 2332,1362 L 2335,1364 L 2338,1364 L 2339,1365 L 2341,1365 L 2342,1366 L 2344,1366 L 2345,1367 L 2348,1367 L 2349,1368 L 2352,1368 L 2353,1369 L 2358,1369 L 2359,1370 L 2363,1370 L 2364,1371 L 2369,1371 L 2370,1372 L 2375,1372 L 2376,1373 L 2380,1373 L 2381,1374 L 2386,1374 L 2387,1375 L 2392,1375 L 2393,1376 L 2398,1376 L 2399,1377 L 2403,1377 L 2404,1378 L 2408,1378 L 2409,1379 L 2413,1379 L 2414,1380 L 2417,1380 L 2418,1381 L 2421,1381 L 2424,1383 L 2425,1382 L 2426,1383 L 2427,1383 L 2430,1385 L 2432,1385 L 2433,1386 L 2435,1386 L 2436,1387 L 2438,1387 L 2441,1389 L 2443,1389 L 2445,1391 L 2447,1391 L 2448,1392 L 2449,1392 L 2451,1394 L 2452,1394 L 2453,1395 L 2454,1395 L 2457,1397 L 2459,1397 L 2460,1398 L 2461,1398 L 2464,1400 L 2466,1400 L 2467,1401 L 2468,1401 L 2469,1402 L 2470,1402 L 2472,1404 L 2473,1404 L 2475,1406 L 2477,1406 L 2480,1408 L 2482,1408 L 2485,1410 L 2487,1410 L 2489,1412 L 2490,1412 L 2491,1413 L 2493,1413 L 2495,1415 L 2497,1415 L 2498,1416 L 2500,1416 L 2503,1418 L 2507,1418 L 2508,1419 L 2510,1419 L 2511,1420 L 2515,1420 L 2516,1421 L 2521,1421 L 2522,1422 L 2539,1422 L 2540,1423 L 2557,1423 L 2558,1424 L 2577,1424 L 2578,1425 L 2595,1425 L 2596,1426 L 2598,1426 L 2599,1427 L 2601,1427 L 2603,1429 L 2605,1429 L 2606,1430 L 2607,1430 L 2614,1437 L 2615,1437 L 2616,1438 L 2616,1439 L 2617,1439 L 2618,1440 L 2618,1441 L 2620,1443 L 2620,1444 L 2621,1445 L 2621,1446 L 2622,1447 L 2622,1448 L 2623,1449 L 2623,1450 L 2625,1453 L 2625,1455 L 2626,1456 L 2626,1459 L 2627,1460 L 2627,1465 L 2628,1466 L 2628,1481 L 2627,1482 L 2627,1490 L 2626,1491 L 2626,1497 L 2625,1498 L 2625,1502 L 2624,1503 L 2624,1508 L 2623,1509 L 2623,1513 L 2622,1514 L 2622,1519 L 2621,1520 L 2621,1527 L 2620,1528 L 2620,1543 L 2621,1544 L 2621,1549 L 2622,1550 L 2622,1552 L 2623,1553 L 2623,1557 L 2624,1558 L 2624,1559 L 2626,1561 L 2626,1563 L 2627,1564 L 2627,1565 L 2629,1567 L 2629,1568 L 2630,1569 L 2630,1570 L 2633,1573 L 2633,1574 L 2638,1579 L 2639,1579 L 2643,1583 L 2644,1583 L 2646,1585 L 2647,1585 L 2648,1586 L 2649,1586 L 2652,1588 L 2655,1588 L 2658,1590 L 2661,1590 L 2662,1591 L 2667,1591 L 2668,1592 L 2672,1592 L 2673,1593 L 2687,1593 L 2688,1592 L 2696,1592 L 2697,1591 L 2705,1591 L 2706,1590 L 2713,1590 L 2714,1589 L 2721,1589 L 2722,1588 L 2768,1588 L 2769,1589 L 2860,1589 L 2861,1588 L 2876,1588 L 2877,1587 L 2885,1587 L 2886,1586 L 2889,1586 L 2890,1585 L 2891,1586 L 2892,1585 L 2895,1585 L 2896,1584 L 2900,1584 L 2901,1583 L 2907,1583 L 2908,1582 L 2910,1582 L 2911,1581 L 2915,1581 L 2916,1580 L 2919,1580 L 2920,1579 L 2923,1579 L 2924,1578 L 2927,1578 L 2928,1577 L 2931,1577 L 2932,1576 L 2935,1576 L 2936,1575 L 2938,1575 L 2939,1574 L 2941,1574 L 2942,1573 L 2945,1573 L 2946,1572 L 2949,1572 L 2950,1571 L 2955,1571 L 2956,1570 L 2960,1570 L 2961,1569 L 2967,1569 L 2968,1568 L 2973,1568 L 2974,1567 L 2982,1567 L 2983,1566 L 2993,1566 L 2994,1565 L 3000,1565 L 3001,1564 L 3012,1564 L 3013,1563 L 3026,1563 L 3027,1562 L 3036,1562 L 3037,1561 L 3047,1561 L 3048,1560 L 3055,1560 L 3056,1559 L 3063,1559 L 3064,1558 L 3075,1558 L 3076,1557 L 3083,1557 L 3084,1556 L 3096,1556 L 3097,1555 L 3105,1555 L 3106,1554 L 3113,1554 L 3114,1553 L 3120,1553 L 3121,1552 L 3127,1552 L 3128,1551 L 3132,1551 L 3133,1550 L 3139,1550 L 3140,1549 L 3145,1549 L 3146,1548 L 3152,1548 L 3153,1547 L 3158,1547 L 3159,1546 L 3165,1546 L 3166,1545 L 3169,1545 L 3170,1544 L 3172,1544 L 3173,1543 L 3176,1543 L 3177,1542 L 3180,1542 L 3181,1541 L 3185,1541 L 3186,1540 L 3189,1540 L 3190,1539 L 3193,1539 L 3194,1538 L 3199,1538 L 3200,1537 L 3202,1537 L 3203,1536 L 3206,1536 L 3207,1535 L 3210,1535 L 3211,1534 L 3213,1534 L 3214,1533 L 3216,1533 L 3217,1532 L 3218,1533 L 3221,1531 L 3225,1531 L 3226,1530 L 3229,1530 L 3230,1529 L 3232,1529 L 3233,1528 L 3235,1528 L 3236,1527 L 3238,1527 L 3239,1526 L 3240,1526 L 3243,1524 L 3245,1524 L 3246,1523 L 3247,1523 L 3248,1522 L 3249,1522 L 3252,1520 L 3255,1520 L 3256,1519 L 3258,1519 L 3261,1517 L 3263,1517 L 3264,1516 L 3266,1516 L 3267,1515 L 3268,1515 L 3271,1513 L 3273,1513 L 3276,1511 L 3279,1511 L 3282,1509 L 3285,1509 L 3286,1508 L 3288,1508 L 3289,1507 L 3291,1507 L 3294,1505 L 3297,1505 L 3298,1504 L 3300,1504 L 3301,1503 L 3303,1503 L 3304,1502 L 3306,1502 L 3307,1501 L 3310,1501 L 3311,1500 L 3314,1500 L 3315,1499 L 3319,1499 L 3320,1498 L 3326,1498 L 3327,1497 L 3331,1497 L 3332,1496 L 3341,1496 L 3342,1495 L 3357,1495 L 3358,1494 L 3363,1494 L 3364,1493 L 3369,1493 L 3370,1492 L 3376,1492 L 3377,1491 L 3381,1491 L 3382,1490 L 3386,1490 L 3387,1489 L 3390,1489 L 3391,1488 L 3395,1488 L 3396,1487 L 3399,1487 L 3400,1486 L 3402,1486 L 3403,1485 L 3406,1485 L 3409,1483 L 3411,1483 L 3412,1482 L 3414,1482 L 3415,1481 L 3417,1481 L 3418,1480 L 3420,1480 L 3421,1479 L 3423,1479 L 3426,1477 L 3428,1477 L 3430,1475 L 3431,1475 L 3432,1474 L 3433,1474 L 3434,1473 L 3435,1473 L 3437,1471 L 3438,1471 L 3439,1470 L 3440,1470 L 3441,1469 L 3442,1469 L 3444,1467 L 3445,1467 L 3446,1466 L 3447,1466 L 3451,1462 L 3452,1462 L 3453,1461 L 3454,1461 L 3455,1460 L 3456,1460 L 3458,1458 L 3459,1458 L 3461,1456 L 3462,1456 L 3463,1455 L 3464,1455 L 3466,1453 L 3467,1453 L 3468,1452 L 3469,1452 L 3471,1450 L 3472,1450 L 3473,1449 L 3475,1449 L 3476,1448 L 3477,1448 L 3478,1447 L 3479,1447 L 3482,1445 L 3484,1445 L 3485,1444 L 3486,1444 L 3487,1443 L 3488,1443 L 3491,1441 L 3493,1441 L 3494,1440 L 3496,1440 L 3497,1439 L 3499,1439 L 3500,1438 L 3503,1438 L 3504,1437 L 3507,1437 L 3508,1436 L 3511,1436 L 3512,1435 L 3515,1435 L 3516,1434 L 3518,1434 L 3519,1433 L 3521,1433 L 3522,1432 L 3527,1432 L 3528,1431 L 3531,1431 L 3532,1430 L 3538,1430 L 3539,1429 L 3543,1429 L 3544,1428 L 3548,1428 L 3549,1427 L 3552,1427 L 3553,1426 L 3555,1426 L 3558,1424 L 3560,1424 L 3561,1423 L 3562,1423 L 3563,1422 L 3564,1422 L 3565,1421 L 3566,1421 L 3567,1420 L 3568,1420 L 3569,1419 L 3570,1419 L 3571,1418 L 3572,1418 L 3573,1417 L 3574,1417 L 3576,1415 L 3577,1415 L 3581,1411 L 3582,1411 L 3584,1409 L 3585,1409 L 3587,1407 L 3588,1407 L 3590,1405 L 3590,1404 L 3592,1402 L 3593,1402 L 3596,1399 L 3597,1399 L 3600,1396 L 3601,1396 L 3605,1392 L 3606,1392 L 3609,1389 L 3610,1389 L 3612,1387 L 3613,1387 L 3614,1386 L 3615,1386 L 3616,1385 L 3617,1385 L 3619,1383 L 3620,1383 L 3621,1382 L 3622,1382 L 3625,1380 L 3627,1380 L 3628,1379 L 3630,1379 L 3631,1378 L 3633,1378 L 3634,1377 L 3636,1377 L 3637,1376 L 3640,1376 L 3641,1375 L 3645,1375 L 3646,1374 L 3650,1374 L 3651,1373 L 3655,1373 L 3656,1372 L 3660,1372 L 3661,1371 L 3666,1371 L 3667,1370 L 3671,1370 L 3672,1369 L 3676,1369 L 3677,1368 L 3680,1368 L 3681,1367 L 3684,1367 L 3685,1366 L 3687,1366 L 3688,1365 L 3690,1365 L 3691,1364 L 3693,1364 L 3696,1362 L 3698,1362 L 3701,1360 L 3703,1360 L 3704,1359 L 3705,1359 L 3706,1358 L 3707,1358 L 3708,1357 L 3709,1357 L 3711,1355 L 3712,1355 L 3714,1353 L 3715,1353 L 3716,1352 L 3717,1352 L 3719,1350 L 3720,1350 L 3722,1348 L 3723,1348 L 3726,1345 L 3727,1345 L 3728,1344 L 3728,1343 L 3731,1340 L 3732,1340 L 3744,1328 L 3745,1328 L 3754,1319 L 3755,1319 L 3759,1315 L 3760,1315 L 3760,1314 L 3761,1313 L 3762,1313 L 3765,1310 L 3766,1310 L 3768,1308 L 3769,1308 L 3777,1300 L 3778,1300 L 3778,1299 L 3779,1298 L 3780,1298 L 3789,1289 L 3789,1288 L 3791,1286 L 3791,1285 L 3793,1283 L 3793,1282 L 3794,1281 L 3795,1281 L 3795,1280 L 3796,1279 L 3796,1278 L 3797,1277 L 3797,1276 L 3799,1273 L 3799,1271 L 3800,1270 L 3800,1268 L 3801,1267 L 3801,1265 L 3802,1264 L 3802,1262 L 3804,1259 L 3804,1256 L 3805,1255 L 3805,1253 L 3806,1252 L 3806,1249 L 3807,1248 L 3807,1243 L 3808,1242 L 3808,1239 L 3809,1238 L 3809,1233 L 3810,1232 L 3810,1228 L 3811,1227 L 3811,1223 L 3812,1222 L 3812,1219 L 3813,1218 L 3813,1215 L 3814,1214 L 3814,1212 L 3816,1209 L 3816,1207 L 3818,1204 L 3818,1202 L 3819,1201 L 3819,1200 L 3820,1199 L 3820,1198 L 3821,1197 L 3821,1196 L 3823,1194 L 3823,1193 L 3833,1183 L 3834,1183 L 3835,1182 L 3836,1182 L 3838,1180 L 3839,1180 L 3842,1178 L 3844,1178 L 3845,1177 L 3847,1177 L 3848,1176 L 3852,1176 L 3853,1175 L 3879,1175 L 3880,1174 L 3898,1174 L 3899,1173 L 3906,1173 L 3907,1172 L 3913,1172 L 3914,1171 L 3918,1171 L 3919,1170 L 3922,1170 L 3923,1169 L 3926,1169 L 3927,1168 L 3929,1168 L 3930,1167 L 3932,1167 L 3933,1166 L 3934,1166 L 3935,1165 L 3936,1165 L 3937,1164 L 3938,1164 L 3939,1163 L 3940,1163 L 3941,1162 L 3942,1162 L 3945,1160 L 3947,1160 L 3948,1159 L 3950,1159 L 3952,1157 L 3955,1157 L 3956,1156 L 3958,1156 L 3959,1155 L 3960,1155 L 3963,1153 L 3965,1153 L 3966,1152 L 3970,1152 L 3971,1151 L 3975,1151 L 3976,1150 L 3977,1151 L 3978,1151 L 3979,1150 L 3982,1150 L 3983,1149 L 3997,1149 L 3998,1148 L 4017,1148 L 4018,1147 L 4029,1147 L 4030,1146 L 4036,1146 L 4037,1145 L 4041,1145 L 4042,1144 L 4045,1144 L 4046,1143 L 4049,1143 L 4050,1142 L 4052,1142 L 4053,1141 L 4056,1141 L 4057,1140 L 4059,1140 L 4060,1139 L 4062,1139 L 4063,1138 L 4066,1138 L 4067,1137 L 4070,1137 L 4071,1136 L 4076,1136 L 4077,1135 L 4080,1135 L 4083,1133 L 4088,1133 L 4089,1132 L 4093,1132 L 4094,1131 L 4101,1131 L 4102,1130 L 4110,1130 L 4111,1129 L 4120,1129 L 4121,1128 L 4133,1128 L 4134,1127 L 4142,1127 L 4143,1126 L 4158,1126 L 4159,1125 L 4168,1125 L 4169,1124 L 4178,1124 L 4179,1123 L 4188,1123 L 4189,1122 L 4206,1122 L 4207,1121 L 4226,1121 L 4227,1120 L 4237,1120 L 4238,1119 L 4245,1119 L 4246,1118 L 4252,1118 L 4253,1117 L 4259,1117 L 4260,1116 L 4265,1116 L 4266,1115 L 4273,1115 L 4274,1114 L 4287,1114 L 4288,1113 L 4301,1113 L 4302,1112 L 4332,1112 L 4333,1111 L 4339,1111 L 4340,1110 L 4346,1110 L 4347,1109 L 4352,1109 L 4353,1108 L 4357,1108 L 4358,1107 L 4361,1107 L 4364,1105 L 4366,1105 L 4367,1104 L 4368,1104 L 4369,1103 L 4371,1103 L 4374,1101 L 4376,1101 L 4377,1100 L 4379,1100 L 4382,1098 L 4384,1098 L 4387,1096 L 4389,1096 L 4391,1094 L 4392,1094 L 4393,1093 L 4395,1093 L 4396,1092 L 4398,1092 L 4399,1091 L 4403,1091 L 4404,1090 L 4409,1090 L 4410,1089 L 4413,1089 L 4414,1088 L 4421,1088 L 4422,1087 L 4437,1087 L 4438,1088 L 4451,1088 L 4452,1089 L 4466,1089 L 4467,1090 L 4478,1090 L 4479,1091 L 4500,1091 L 4501,1090 L 4610,1090 L 4611,1089 L 4628,1089 L 4629,1088 L 4638,1088 L 4639,1087 L 4643,1087 L 4644,1086 L 4647,1086 L 4648,1085 L 4653,1085 L 4654,1084 L 4657,1084 L 4658,1083 L 4661,1083 L 4664,1081 L 4668,1081 L 4669,1080 L 4672,1080 L 4673,1079 L 4676,1079 L 4679,1077 L 4682,1077 L 4683,1076 L 4686,1076 L 4687,1075 L 4690,1075 L 4691,1074 L 4693,1074 L 4694,1073 L 4698,1073 L 4699,1072 L 4703,1072 L 4704,1071 L 4710,1071 L 4711,1070 L 4719,1070 L 4720,1069 L 4731,1069 L 4732,1068 L 4748,1068 L 4749,1069 L 4777,1069 L 4778,1070 L 4829,1070 L 4830,1069 L 5036,1069 L 5037,1070 L 5092,1070 L 5093,1069 L 5106,1069 L 5107,1068 L 5108,1069 L 5109,1069 L 5110,1068 L 5118,1068 L 5119,1067 L 5128,1067 L 5129,1066 L 5137,1066 L 5138,1065 L 5143,1065 L 5144,1064 L 5153,1064 L 5154,1063 L 5161,1063 L 5162,1062 L 5170,1062 L 5171,1061 L 5172,1062 L 5173,1061 L 5183,1061 L 5184,1060 L 5196,1060 L 5197,1059 L 5198,1059 L 5199,1060 L 5200,1059 L 5227,1059 L 5228,1058 L 5246,1058 L 5247,1057 L 5259,1057 L 5260,1056 L 5269,1056 L 5270,1055 L 5278,1055 L 5279,1054 L 5288,1054 L 5289,1053 L 5295,1053 L 5296,1052 L 5297,1053 L 5298,1052 L 5302,1052 L 5303,1051 L 5309,1051 L 5310,1050 L 5317,1050 L 5318,1049 L 5329,1049 L 5330,1048 L 5367,1048 L 5368,1049 L 5400,1049 L 5401,1048 L 5409,1048 L 5410,1047 L 5415,1047 L 5416,1046 L 5419,1046 L 5420,1045 L 5422,1045 L 5423,1044 L 5425,1044 L 5428,1042 L 5430,1042 L 5431,1041 L 5433,1041 L 5434,1040 L 5436,1040 L 5437,1039 L 5439,1039 L 5442,1037 L 5444,1037 L 5445,1036 L 5447,1036 L 5448,1035 L 5449,1035 L 5450,1034 L 5451,1034 L 5454,1032 L 5456,1032 L 5457,1031 L 5459,1031 L 5460,1030 L 5462,1030 L 5463,1029 L 5466,1029 L 5467,1028 L 5469,1028 L 5470,1027 L 5475,1027 L 5476,1026 L 5482,1026 L 5483,1025 L 5500,1025 L 5501,1026 L 5516,1026 L 5517,1027 L 5526,1027 L 5527,1028 L 5538,1028 L 5539,1029 L 5559,1029 L 5560,1028 L 5669,1028 L 5670,1027 L 5718,1027 L 5719,1028 L 5726,1028 L 5727,1029 L 5749,1029 L 5750,1030 L 5767,1030 L 5768,1029 L 5776,1029 L 5777,1028 L 5780,1028 L 5781,1027 L 5787,1027 L 5788,1026 L 5792,1026 L 5793,1025 L 5795,1025 L 5798,1023 L 5800,1023 L 5801,1022 L 5803,1022 L 5804,1021 L 5807,1021 L 5808,1020 L 5811,1020 L 5812,1019 L 5815,1019 L 5816,1018 L 5818,1018 L 5821,1016 L 5823,1016 L 5824,1015 L 5827,1015 L 5828,1014 L 5830,1014 L 5831,1013 L 5835,1013 L 5836,1012 L 5840,1012 L 5841,1011 L 5847,1011 L 5848,1010 L 5853,1010 L 5854,1009 L 5862,1009 L 5863,1008 L 5887,1008 L 5888,1007 L 6159,1007 L 6160,1008 L 6217,1008 L 6218,1007 L 6225,1007 L 6226,1006 L 6232,1006 L 6233,1005 L 6237,1005 L 6238,1004 L 6243,1004 L 6244,1003 L 6249,1003 L 6250,1002 L 6255,1002 L 6256,1001 L 6261,1001 L 6262,1000 L 6263,1001 L 6264,1000 L 6270,1000 L 6271,999 L 6280,999 L 6281,998 L 6299,998 L 6300,997 L 6550,997 L 6551,996 L 6588,996 L 6589,997 L 6658,997 L 6659,996 L 6669,996 L 6670,995 L 6679,995 L 6680,994 L 6685,994 L 6686,993 L 6690,993 L 6691,992 L 6695,992 L 6696,991 L 6699,991 L 6700,990 L 6703,990 L 6704,989 L 6707,989 L 6708,988 L 6711,988 L 6712,987 L 6716,987 L 6717,986 L 6719,986 L 6720,985 L 6722,985 L 6723,984 L 6725,984 L 6726,983 L 6728,983 L 6731,981 L 6733,981 L 6734,980 L 6736,980 L 6739,978 L 6741,978 L 6742,977 L 6744,977 L 6746,975 L 6747,975 L 6748,974 L 6749,974 L 6751,972 L 6752,972 L 6753,971 L 6754,971 L 6756,969 L 6757,969 L 6761,965 L 6762,965 L 6765,962 L 6766,962 L 6768,960 L 6768,959 L 6769,958 L 6770,958 L 6770,957 L 6781,946 L 6781,945 L 6790,936 L 6790,935 L 6791,934 L 6791,933 L 6792,932 L 6793,932 L 6801,924 L 6801,923 L 6803,921 L 6804,921 L 6805,920 L 6806,920 L 6810,916 L 6811,916 L 6813,914 L 6814,914 L 6816,912 L 6817,912 L 6819,910 L 6821,910 L 6824,908 L 6826,908 L 6827,907 L 6830,907 L 6831,906 L 6833,906 L 6834,905 L 6836,905 L 6837,904 L 6839,904 L 6840,903 L 6843,903 L 6844,902 L 6851,902 L 6852,901 L 6887,901 L 6888,902 L 6901,902 L 6902,903 L 6919,903 L 6920,904 L 6940,904 L 6941,903 L 7999,903 L 7999,239 L 7569,239 L 7568,238 L 7542,238 L 7541,239 L 7539,239 L 7538,238 L 7537,239 L 7524,239 L 7523,240 L 7513,240 L 7512,241 L 7479,241 L 7478,240 L 7470,240 L 7469,239 L 7466,239 L 7465,238 L 7462,238 L 7461,237 L 7459,237 L 7458,236 L 7456,236 L 7454,234 L 7452,234 L 7451,233 L 7450,233 L 7449,232 L 7448,232 L 7447,231 L 7446,231 L 7445,230 L 7444,230 L 7443,229 L 7442,229 L 7439,226 L 7438,226 L 7434,222 L 7433,222 L 7429,218 L 7428,218 L 7423,213 L 7422,213 L 7419,210 L 7418,210 L 7416,208 L 7415,208 L 7414,207 L 7413,207 L 7410,204 L 7409,204 L 7408,203 L 7407,203 L 7406,202 L 7405,202 L 7404,201 L 7403,201 L 7402,200 L 7401,200 L 7400,199 L 7399,199 L 7398,198 L 7397,198 L 7396,197 L 7395,197 L 7394,196 L 7393,196 L 7392,195 L 7391,195 L 7390,194 L 7389,194 L 7388,193 L 7387,193 L 7384,191 L 7382,191 L 7381,190 L 7379,190 L 7376,188 L 7374,188 L 7373,187 L 7371,187 L 7370,186 L 7369,186 L 7368,185 L 7366,185 L 7363,183 L 7361,183 L 7360,182 L 7358,182 L 7357,181 L 7355,181 L 7354,180 L 7352,180 L 7351,179 L 7349,179 L 7348,178 L 7346,178 L 7345,177 L 7343,177 L 7342,176 L 7339,176 L 7336,174 L 7334,174 L 7333,173 L 7331,173 L 7330,172 L 7328,172 L 7325,170 L 7322,170 L 7321,169 L 7320,169 L 7317,167 L 7314,167 L 7313,166 L 7312,166 L 7309,164 L 7307,164 L 7305,162 L 7302,162 L 7301,161 L 7299,161 L 7298,160 L 7296,160 L 7295,159 L 7292,159 L 7291,158 L 7288,158 L 7287,157 L 7281,157 L 7280,156 L 7277,156 L 7276,155 L 7270,155 L 7269,154 L 7262,154 L 7261,153 L 7249,153 L 7248,154 L 7233,154 L 7232,155 L 7227,155 L 7226,156 L 7218,156 L 7217,157 L 7170,157 L 7169,156 L 5131,156 L 5130,155 L 5101,155 L 5100,156 L 5093,156 L 5092,157 L 5079,157 L 5078,158 L 5043,158 L 5042,157 L 5033,157 L 5032,156 L 5028,156 L 5027,155 L 5024,155 L 5023,154 L 5021,154 L 5020,153 L 5018,153 L 5015,151 L 5013,151 L 5012,150 L 5011,150 L 5010,149 L 5009,149 L 5008,148 L 5007,148 L 5006,147 L 5005,147 L 5004,146 L 5004,145 L 5003,145 L 5000,142 L 5000,141 L 4996,137 L 4996,136 L 4995,135 L 4995,134 L 4993,132 L 4993,131 L 4992,130 L 4992,129 L 4990,126 L 4990,123 L 4989,122 L 4989,120 L 4988,119 L 4988,117 L 4987,116 L 4987,113 L 4986,112 L 4986,110 L 4985,109 L 4985,107 L 4984,106 L 4984,104 L 4982,101 L 4982,99 L 4981,98 L 4981,97 L 4979,94 L 4979,92 L 4978,91 L 4978,90 L 4977,89 L 4977,88 L 4975,86 L 4975,85 L 4972,82 L 4972,81 L 4971,81 L 4970,80 L 4970,79 L 4969,79 L 4967,76 L 4966,76 L 4962,72 L 4961,72 L 4957,68 L 4955,68 L 4953,66 L 4951,66 L 4949,64 L 4948,64 L 4947,63 L 4944,63 L 4943,62 L 4942,62 L 4941,61 L 4939,61 L 4938,60 L 4934,60 L 4933,59 L 4928,59 L 4927,58 L 4922,58 L 4921,57 L 4912,57 L 4911,56 L 4840,56 L 4839,57 L 4800,57 L 4799,56 L 4642,56 L 4641,57 L 4597,57 L 4596,56 L 4582,56 L 4581,55 L 4570,55 L 4569,54 Z" fill="rgb(156,93,66)" opacity="1.00" stroke="none"/>
  </g>
</svg>